# xmcd
#
# Track frame offsets:
#	182
#	13240
#	27757
#	37942
#	53210
#	66360
#	79502
#	93282
#	106027
#	117232
#
# Disc length: 1731 seconds
#
# Revision: 1
# Processed by: cddbd v1.5.2PL0 Copyright (c) Steve Scherf et al.
# Submitted via: audiograbber 1.83.01
#
DISCID=7106c10a
DTITLE=Georges Hamel - Croire Au Bonheur
DYEAR=1992
DGENRE=Country
TTITLE0=Croire Au Bonheur(Georges Hamel-Georges Hamel)
TTITLE1=Ne Laisse Pas Mourir Ton Rêve(Denis Champoux-Denis Champoux)
TTITLE2=J'étais  Sous Les Étoiles(Denis Champoux-Denis Champoux)
TTITLE3=La Clé De Ton Coeur(Denis Champoux-Denis Champoux)
TTITLE4=Rendez-vous(France Duval-France Duval)
TTITLE5=C'est L'argent, C'est L'amour(Denis Champoux-Denis Champoux)
TTITLE6=Passe Le Temps(Georges Hamel-Georges Hamel)
TTITLE7=Je Chante Des Chansons D'amour(Denis Champoux-Denis Champoux)
TTITLE8=Écoute Ma Chanson(Denis Champoux-Denis Champoux)
TTITLE9=En Chantant(Georges Hamel-Georges Hamel)
EXTD=
EXTT0=
EXTT1=
EXTT2=
EXTT3=
EXTT4=
EXTT5=
EXTT6=
EXTT7=
EXTT8=
EXTT9=
PLAYORDER=
